<?xml version="1.0" encoding="UTF-8"?>
<!DOCTYPE svg PUBLIC "-//W3C//DTD SVG 1.1//EN" "http://www.w3.org/Graphics/SVG/1.1/DTD/svg11.dtd">
<svg xmlns="http://www.w3.org/2000/svg" version="1.1" width="552px" height="200px" style="shape-rendering:geometricPrecision; text-rendering:geometricPrecision; image-rendering:optimizeQuality; fill-rule:evenodd; clip-rule:evenodd" xmlns:xlink="http://www.w3.org/1999/xlink">
<g><path style="opacity:1" fill="#fffefe" d="M -0.5,-0.5 C 183.5,-0.5 367.5,-0.5 551.5,-0.5C 551.5,66.1667 551.5,132.833 551.5,199.5C 367.5,199.5 183.5,199.5 -0.5,199.5C -0.5,132.833 -0.5,66.1667 -0.5,-0.5 Z"/></g>
<g><path style="opacity:1" fill="#ed7d31" d="M 113.5,46.5 C 95.5,46.5 77.5,46.5 59.5,46.5C 59.1716,58.6783 59.5049,70.6783 60.5,82.5C 75.5037,82.3334 90.5037,82.5001 105.5,83C 108.041,85.749 109.041,89.0823 108.5,93C 108.333,95.5 108.167,98 108,100.5C 107.801,102.402 106.967,103.902 105.5,105C 90.5037,105.5 75.5037,105.667 60.5,105.5C 59.5042,119.323 59.1709,133.323 59.5,147.5C 77.5,147.5 95.5,147.5 113.5,147.5C 116.944,150.247 118.278,153.914 117.5,158.5C 117.929,162.744 116.929,166.578 114.5,170C 87.4132,170.982 60.4132,170.649 33.5,169C 32.2986,168.097 31.4652,166.931 31,165.5C 30.3333,119.5 30.3333,73.5 31,27.5C 32.1667,26.3333 33.3333,25.1667 34.5,24C 61.1667,23.3333 87.8333,23.3333 114.5,24C 115.126,24.7504 115.626,25.5838 116,26.5C 116.667,31.8333 116.667,37.1667 116,42.5C 115.8,44.3197 114.966,45.653 113.5,46.5 Z"/></g>
<g><path style="opacity:1" fill="#fadecb" d="M 113.5,46.5 C 96.0079,47.4967 78.3412,47.8301 60.5,47.5C 60.5,59.1667 60.5,70.8333 60.5,82.5C 59.5049,70.6783 59.1716,58.6783 59.5,46.5C 77.5,46.5 95.5,46.5 113.5,46.5 Z"/></g>
<g><path style="opacity:1" fill="#ffc009" d="M 188.5,58.5 C 202.074,57.0388 214.24,60.3721 225,68.5C 225.76,75.5628 224.426,82.2295 221,88.5C 220.044,89.8941 218.711,90.5607 217,90.5C 212.948,88.796 209.115,86.6293 205.5,84C 192.219,79.5379 181.719,83.0379 174,94.5C 166.059,108.144 163.059,122.81 165,138.5C 167.569,145.71 172.735,149.377 180.5,149.5C 190.565,148.647 199.565,145.147 207.5,139C 208.5,138.333 209.5,138.333 210.5,139C 212.341,148.799 210.007,157.466 203.5,165C 190.003,172.111 175.669,174.444 160.5,172C 142.06,165.996 133.393,153.162 134.5,133.5C 134.222,106.23 144.555,84.0636 165.5,67C 172.745,62.6449 180.412,59.8115 188.5,58.5 Z"/></g>
<g><path style="opacity:1" fill="#ffc009" d="M 282.5,58.5 C 326.415,55.358 344.249,75.358 336,118.5C 325.967,159.198 300.133,177.031 258.5,172C 241.061,168.563 231.228,158.063 229,140.5C 226.283,113.645 234.449,90.8113 253.5,72C 262.301,65.4639 271.968,60.9639 282.5,58.5 Z"/></g>
<g><path style="opacity:1" fill="#ffc00a" d="M 422.5,58.5 C 440.546,55.7568 451.713,63.0901 456,80.5C 469.873,61.3206 488.04,55.154 510.5,62C 516.425,66.0079 520.258,71.5079 522,78.5C 522.667,84.5 522.667,90.5 522,96.5C 517.997,120.681 513.164,144.681 507.5,168.5C 502.801,170.86 497.801,171.86 492.5,171.5C 489.833,171.333 487.167,171.167 484.5,171C 482.671,170.727 481.171,169.893 480,168.5C 484.349,144.582 488.516,120.582 492.5,96.5C 493.835,86.334 489.502,82.1673 479.5,84C 464.633,92.2027 455.466,104.703 452,121.5C 449.046,137.272 445.713,152.938 442,168.5C 437.495,170.881 432.662,171.881 427.5,171.5C 423.744,171.537 420.078,171.037 416.5,170C 415.056,168.874 414.39,167.374 414.5,165.5C 419.35,142.252 423.683,118.919 427.5,95.5C 428.329,88.1019 425.163,84.1019 418,83.5C 405.217,87.6112 396.217,95.9445 391,108.5C 389.268,112.363 387.934,116.363 387,120.5C 383.918,136.579 380.584,152.579 377,168.5C 372.495,170.881 367.662,171.881 362.5,171.5C 358.161,171.639 353.994,170.972 350,169.5C 349.333,166.833 349.333,164.167 350,161.5C 356.412,128.774 363.079,96.1069 370,63.5C 371.171,62.1068 372.671,61.2735 374.5,61C 380.585,60.1392 386.585,60.4725 392.5,62C 393.116,63.4002 393.449,64.9002 393.5,66.5C 392.499,70.8168 391.999,75.1501 392,79.5C 399.621,68.6987 409.787,61.6987 422.5,58.5 Z"/></g>
<g><path style="opacity:1" fill="#fffefd" d="M 284.5,81.5 C 289.58,81.2497 294.58,81.7497 299.5,83C 304.436,85.6975 307.27,89.8641 308,95.5C 309.122,110.892 305.789,125.225 298,138.5C 289.34,149.371 278.507,152.538 265.5,148C 261.686,145.519 259.519,142.019 259,137.5C 256.111,117.53 261.611,100.363 275.5,86C 278.592,84.4541 281.592,82.9541 284.5,81.5 Z"/></g>
<g><path style="opacity:1" fill="#f7c8a8" d="M 60.5,105.5 C 60.5,119.167 60.5,132.833 60.5,146.5C 78.3412,146.17 96.0079,146.503 113.5,147.5C 95.5,147.5 77.5,147.5 59.5,147.5C 59.1709,133.323 59.5042,119.323 60.5,105.5 Z"/></g>
</svg>
